<?xml version="1.0" encoding="utf-8"?>
<!-- Generator: Adobe Illustrator 22.0.1, SVG Export Plug-In . SVG Version: 6.00 Build 0)  -->
<svg version="1.1" id="Capa_1" xmlns="http://www.w3.org/2000/svg" xmlns:xlink="http://www.w3.org/1999/xlink" x="0px" y="0px"
	 viewBox="0 0 184.1 184.1" style="enable-background:new 0 0 184.1 184.1;" xml:space="preserve">
<style type="text/css">
	.st0{fill:none;stroke:#000000;stroke-width:5;stroke-linecap:round;stroke-miterlimit:10;}
</style>
<path d="M165.8,74.9c-1.4-1.1-3.3-1-4.6,0l-39.8,30.4h-0.1l-26.1-59c-1.2-2.8-5.8-2.8-7.1,0L61.8,106c0,0,0,0-0.1,0L22.3,75
	c-1.4-1.1-3.3-1.1-4.7-0.1c-1.4,1.1-1.9,2.9-1.3,4.4l27.5,70.9c0.6,1.5,2,2.5,3.6,2.5h88.8c1.6,0,3-1,3.6-2.5l27.5-70.9
	C167.7,77.8,167.2,75.9,165.8,74.9z M139.5,163.2c-0.1,2.1-2,3.7-4.1,3.7H47.9c-2.1,0-4-1.6-4.1-3.7c-0.1-2.2,1.7-4,3.9-4h88
	C137.9,159.1,139.6,161,139.5,163.2z"/>
<circle cx="12.4" cy="64.1" r="9"/>
<circle cx="171.7" cy="64.1" r="9"/>
<circle cx="91.7" cy="26" r="5"/>
<path d="M144.2,74.9c-1.4-1.1-3.3-1-4.6,0l-49.8,38.5c0,0-45.9-38.4-45.9-38.4c-1.4-1.1-3.3-1.1-4.7-0.1c-1.4,1.1-1.9,2.9-1.3,4.4
	l5.9,70.9c0.6,1.5,2,2.5,3.6,2.5h88.8c1.6,0,3-1,3.6-2.5l5.8-70.9C146.1,77.8,145.6,76,144.2,74.9z"/>
<line class="st0" x1="91.6" y1="17.2" x2="91.5" y2="38.8"/>
<line class="st0" x1="100.1" y1="26" x2="83.1" y2="26"/>
</svg>
