<?xml version="1.0" encoding="utf-8"?>
<!-- Generator: Adobe Illustrator 22.0.1, SVG Export Plug-In . SVG Version: 6.00 Build 0)  -->
<svg version="1.1" id="Capa_1" xmlns="http://www.w3.org/2000/svg" xmlns:xlink="http://www.w3.org/1999/xlink" x="0px" y="0px"
	 viewBox="0 0 184.1 184.1" style="enable-background:new 0 0 184.1 184.1;" xml:space="preserve">
<path d="M166.1,61.4c-1.4-1.1-3.3-1-4.6,0l-39.8,30.4h-0.1l-26.1-59c-1.2-2.8-5.8-2.8-7.1,0L62.1,92.5c0,0,0,0-0.1,0l-39.4-31
	c-1.4-1.1-3.3-1.1-4.7-0.1c-1.4,1.1-1.9,2.9-1.3,4.4l27.5,70.9c0.6,1.5,2,2.5,3.6,2.5h88.8c1.6,0,3-1,3.6-2.5l27.5-70.9
	C168,64.3,167.5,62.4,166.1,61.4z M139.8,149.7c-0.1,2.1-2,3.7-4.1,3.7H48.2c-2.1,0-4-1.6-4.1-3.7c-0.1-2.2,1.7-4,3.9-4h88
	C138.2,145.6,139.9,147.5,139.8,149.7z"/>
</svg>
