<?xml version="1.0" encoding="utf-8"?>
<!-- Generator: Adobe Illustrator 22.0.1, SVG Export Plug-In . SVG Version: 6.00 Build 0)  -->
<svg version="1.1" id="Capa_1" xmlns="http://www.w3.org/2000/svg" xmlns:xlink="http://www.w3.org/1999/xlink" x="0px" y="0px"
	 viewBox="0 0 184.1 184.1" style="enable-background:new 0 0 184.1 184.1;" xml:space="preserve">
<path d="M144.5,67.7c-1.4-1.1-3.3-1-4.6,0l-18.1,30.4c0,0-0.1,0-0.1,0L95.6,47.9c-1.2-2.8-5.8-2.8-7.1,0L62.2,98.8c0,0,0,0-0.1,0
	l-17.9-31c-1.4-1.1-3.3-1.1-4.7-0.1c-1.4,1.1-1.9,2.9-1.3,4.4l5.9,70.9c0.6,1.5,2,2.5,3.6,2.5h88.8c1.6,0,3-1,3.6-2.5l5.8-70.9
	C146.4,70.6,145.9,68.8,144.5,67.7z M139.9,156c-0.1,2.1-2,3.7-4.1,3.7H48.3c-2.1,0-4-1.6-4.1-3.7c-0.1-2.2,1.7-4,3.9-4h88
	C138.3,152,140,153.8,139.9,156z"/>
<circle cx="92.1" cy="33.4" r="9"/>
<circle cx="38" cy="54.8" r="9"/>
<circle cx="146.1" cy="54.8" r="9"/>
</svg>
